<?xml version="1.0" encoding="utf-8"?>
<!-- Generator: Adobe Illustrator 23.0.6, SVG Export Plug-In . SVG Version: 6.00 Build 0)  -->
<svg version="1.1" id="Layer_1" xmlns="http://www.w3.org/2000/svg" xmlns:xlink="http://www.w3.org/1999/xlink" x="0px" y="0px"
	 viewBox="0 0 254 38" style="enable-background:new 0 0 254 38;" xml:space="preserve">
<style type="text/css">
	.st0{fill:#f57f31;}
</style>
<g>
	<path class="st0" d="M7.5,11.7c3.4,0.1,4.8-1,5.9-4.2c0.2-0.7,0.5-1.5,0.8-2.2c0.9-1.8,2.4-2.8,4.4-2.8c2,0,3.6,0.9,4.5,2.9
		c0.4,0.9,0.6,1.9,1,2.8c0.7,2.1,2.2,3.3,4.5,3.4c1,0,2.1,0,3.1,0.1c2.1,0.2,3.5,1.4,4.2,3.4c0.6,2.1,0.1,3.8-1.6,5.2
		c-0.7,0.6-1.4,1-2.1,1.6c-2,1.5-2.6,3.4-1.8,5.8c0.2,0.7,0.5,1.5,0.7,2.2c0.6,2.1-0.1,4.1-1.7,5.3c-1.8,1.3-3.9,1.4-5.8,0.2
		c-0.6-0.4-1.2-0.9-1.8-1.3c-2.3-1.7-4.1-1.7-6.4,0c-0.6,0.4-1.2,0.9-1.8,1.3c-1.9,1.2-4.1,1.1-5.8-0.1c-1.7-1.3-2.3-3.3-1.6-5.5
		c0.1-0.3,0.2-0.7,0.3-1.1c1.2-4.2,0.9-5-2.7-7.6c-2.5-1.8-3.2-3.7-2.4-6.1c0.7-2.1,2.5-3.3,5.1-3.3C6.9,11.7,7.2,11.7,7.5,11.7z"/>
</g>
<g>
	<path class="st0" d="M61.3,11.7c3.4,0.1,4.8-1,5.9-4.2c0.2-0.7,0.5-1.5,0.8-2.2c0.9-1.8,2.4-2.8,4.4-2.8c2,0,3.6,0.9,4.5,2.9
		c0.4,0.9,0.6,1.9,1,2.8c0.7,2.1,2.2,3.3,4.5,3.4c1,0,2.1,0,3.1,0.1c2.1,0.2,3.5,1.4,4.2,3.4c0.6,2.1,0.1,3.8-1.6,5.2
		c-0.7,0.6-1.4,1-2.1,1.6c-2,1.5-2.6,3.4-1.8,5.8c0.2,0.7,0.5,1.5,0.7,2.2c0.6,2.1-0.1,4.1-1.7,5.3c-1.8,1.3-3.9,1.4-5.8,0.2
		c-0.6-0.4-1.2-0.9-1.8-1.3c-2.3-1.7-4.1-1.7-6.4,0c-0.6,0.4-1.2,0.9-1.8,1.3c-1.9,1.2-4.1,1.1-5.8-0.1c-1.7-1.3-2.3-3.3-1.6-5.5
		c0.1-0.3,0.2-0.7,0.3-1.1c1.2-4.2,0.9-5-2.7-7.6c-2.5-1.8-3.2-3.7-2.4-6.1c0.7-2.1,2.5-3.3,5.1-3.3C60.7,11.6,61,11.6,61.3,11.7z"
		/>
</g>
<g>
	<path class="st0" d="M115.4,11.7c3.4,0.1,4.8-1,5.9-4.2c0.2-0.7,0.5-1.5,0.8-2.2c0.9-1.8,2.4-2.8,4.4-2.8c2,0,3.6,0.9,4.5,2.9
		c0.4,0.9,0.6,1.9,1,2.8c0.7,2.1,2.2,3.3,4.5,3.4c1,0,2.1,0,3.1,0.1c2.1,0.2,3.5,1.4,4.2,3.4c0.6,2.1,0.1,3.8-1.6,5.2
		c-0.7,0.6-1.4,1-2.1,1.6c-2,1.5-2.6,3.4-1.8,5.8c0.2,0.7,0.5,1.5,0.7,2.2c0.6,2.1-0.1,4.1-1.7,5.3c-1.8,1.3-3.9,1.4-5.8,0.2
		c-0.6-0.4-1.2-0.9-1.8-1.3c-2.3-1.7-4.1-1.7-6.4,0c-0.6,0.4-1.2,0.9-1.8,1.3c-1.9,1.2-4.1,1.1-5.8-0.1c-1.7-1.3-2.3-3.3-1.6-5.5
		c0.1-0.3,0.2-0.7,0.3-1.1c1.2-4.2,0.9-5-2.7-7.6c-2.5-1.8-3.2-3.7-2.4-6.1c0.7-2.1,2.5-3.3,5.1-3.3
		C114.8,11.6,115.1,11.7,115.4,11.7z"/>
</g>
<g>
	<path class="st0" d="M169.2,11.6c3.4,0.1,4.8-1,5.9-4.2c0.2-0.7,0.5-1.5,0.8-2.2c0.9-1.8,2.4-2.8,4.4-2.8c2,0,3.6,0.9,4.5,2.9
		c0.4,0.9,0.6,1.9,1,2.8c0.7,2.1,2.2,3.3,4.5,3.4c1,0,2.1,0,3.1,0.1c2.1,0.2,3.5,1.4,4.2,3.4c0.6,2.1,0.1,3.8-1.6,5.2
		c-0.7,0.6-1.4,1-2.1,1.6c-2,1.5-2.6,3.4-1.8,5.8c0.2,0.7,0.5,1.5,0.7,2.2c0.6,2.1-0.1,4.1-1.7,5.3c-1.8,1.3-3.9,1.4-5.8,0.2
		c-0.6-0.4-1.2-0.9-1.8-1.3c-2.3-1.7-4.1-1.7-6.4,0c-0.6,0.4-1.2,0.9-1.8,1.3c-1.9,1.2-4.1,1.1-5.8-0.1c-1.7-1.3-2.3-3.3-1.6-5.5
		c0.1-0.3,0.2-0.7,0.3-1.1c1.2-4.2,0.9-5-2.7-7.6c-2.5-1.8-3.2-3.7-2.4-6.1c0.7-2.1,2.5-3.3,5.1-3.3
		C168.6,11.6,168.9,11.6,169.2,11.6z"/>
</g>
<g>
	<path class="st0" d="M222.9,11.6c3.4,0.1,4.8-1,5.9-4.2c0.2-0.7,0.5-1.5,0.8-2.2c0.9-1.8,2.4-2.8,4.4-2.8c2,0,3.6,0.9,4.5,2.9
		c0.4,0.9,0.6,1.9,1,2.8c0.7,2.1,2.2,3.3,4.5,3.4c1,0,2.1,0,3.1,0.1c2.1,0.2,3.5,1.4,4.2,3.4c0.6,2.1,0.1,3.8-1.6,5.2
		c-0.7,0.6-1.4,1-2.1,1.6c-2,1.5-2.6,3.4-1.8,5.8c0.2,0.7,0.5,1.5,0.7,2.2c0.6,2.1-0.1,4.1-1.7,5.3c-1.8,1.3-3.9,1.4-5.8,0.2
		c-0.6-0.4-1.2-0.9-1.8-1.3c-2.3-1.7-4.1-1.7-6.4,0c-0.6,0.4-1.2,0.9-1.8,1.3c-1.9,1.2-4.1,1.1-5.8-0.1c-1.7-1.3-2.3-3.3-1.6-5.5
		c0.1-0.3,0.2-0.7,0.3-1.1c1.2-4.2,0.9-5-2.7-7.6c-2.5-1.8-3.2-3.7-2.4-6.1c0.7-2.1,2.5-3.3,5.1-3.3
		C222.2,11.6,222.5,11.6,222.9,11.6z"/>
</g>
</svg>
